<svg width="391" height="259" viewBox="0 0 391 259" fill="none" xmlns="http://www.w3.org/2000/svg">
<g filter="url(#filter0_ddiii_440_968)">
<path d="M244.817 -46.4515C277.764 -46.4514 304.472 -19.743 304.473 13.2037C304.473 33.7514 294.084 51.8718 278.272 62.6012C294.084 73.3305 304.473 91.4517 304.473 112C304.473 144.947 277.764 171.655 244.817 171.655L146.022 171.655C113.076 171.655 86.3671 144.947 86.3671 112C86.3671 91.452 96.7551 73.3306 112.566 62.6012C96.7555 51.8718 86.3671 33.7511 86.3671 13.2037C86.3672 -19.743 113.076 -46.4514 146.022 -46.4515L244.817 -46.4515Z" fill="white"/>
<path d="M244.817 -46.4515C277.764 -46.4514 304.472 -19.743 304.473 13.2037C304.473 33.7514 294.084 51.8718 278.272 62.6012C294.084 73.3305 304.473 91.4517 304.473 112C304.473 144.947 277.764 171.655 244.817 171.655L146.022 171.655C113.076 171.655 86.3671 144.947 86.3671 112C86.3671 91.452 96.7551 73.3306 112.566 62.6012C96.7555 51.8718 86.3671 33.7511 86.3671 13.2037C86.3672 -19.743 113.076 -46.4514 146.022 -46.4515L244.817 -46.4515Z" fill="url(#paint0_radial_440_968)"/>
<path d="M244.817 -46.4515C277.764 -46.4514 304.472 -19.743 304.473 13.2037C304.473 33.7514 294.084 51.8718 278.272 62.6012C294.084 73.3305 304.473 91.4517 304.473 112C304.473 144.947 277.764 171.655 244.817 171.655L146.022 171.655C113.076 171.655 86.3671 144.947 86.3671 112C86.3671 91.452 96.7551 73.3306 112.566 62.6012C96.7555 51.8718 86.3671 33.7511 86.3671 13.2037C86.3672 -19.743 113.076 -46.4514 146.022 -46.4515L244.817 -46.4515Z" fill="url(#paint1_radial_440_968)"/>
<path d="M244.817 -46.4515C277.764 -46.4514 304.472 -19.743 304.473 13.2037C304.473 33.7514 294.084 51.8718 278.272 62.6012C294.084 73.3305 304.473 91.4517 304.473 112C304.473 144.947 277.764 171.655 244.817 171.655L146.022 171.655C113.076 171.655 86.3671 144.947 86.3671 112C86.3671 91.452 96.7551 73.3306 112.566 62.6012C96.7555 51.8718 86.3671 33.7511 86.3671 13.2037C86.3672 -19.743 113.076 -46.4514 146.022 -46.4515L244.817 -46.4515Z" fill="url(#paint2_radial_440_968)"/>
</g>
<defs>
<filter id="filter0_ddiii_440_968" x="1.52588e-05" y="-132.819" width="390.84" height="390.841" filterUnits="userSpaceOnUse" color-interpolation-filters="sRGB">
<feFlood flood-opacity="0" result="BackgroundImageFix"/>
<feColorMatrix in="SourceAlpha" type="matrix" values="0 0 0 0 0 0 0 0 0 0 0 0 0 0 0 0 0 0 127 0" result="hardAlpha"/>
<feOffset/>
<feGaussianBlur stdDeviation="16.1938"/>
<feComposite in2="hardAlpha" operator="out"/>
<feColorMatrix type="matrix" values="0 0 0 0 0.662745 0 0 0 0 0.541176 0 0 0 0 0.960784 0 0 0 0.6 0"/>
<feBlend mode="normal" in2="BackgroundImageFix" result="effect1_dropShadow_440_968"/>
<feColorMatrix in="SourceAlpha" type="matrix" values="0 0 0 0 0 0 0 0 0 0 0 0 0 0 0 0 0 0 127 0" result="hardAlpha"/>
<feOffset/>
<feGaussianBlur stdDeviation="43.1835"/>
<feComposite in2="hardAlpha" operator="out"/>
<feColorMatrix type="matrix" values="0 0 0 0 0.662745 0 0 0 0 0.541176 0 0 0 0 0.960784 0 0 0 0.4 0"/>
<feBlend mode="normal" in2="effect1_dropShadow_440_968" result="effect2_dropShadow_440_968"/>
<feBlend mode="normal" in="SourceGraphic" in2="effect2_dropShadow_440_968" result="shape"/>
<feColorMatrix in="SourceAlpha" type="matrix" values="0 0 0 0 0 0 0 0 0 0 0 0 0 0 0 0 0 0 127 0" result="hardAlpha"/>
<feOffset dy="29.9943"/>
<feGaussianBlur stdDeviation="20.2462"/>
<feComposite in2="hardAlpha" operator="arithmetic" k2="-1" k3="1"/>
<feColorMatrix type="matrix" values="0 0 0 0 0.983333 0 0 0 0 0.983333 0 0 0 0 0.983333 0 0 0 1 0"/>
<feBlend mode="normal" in2="shape" result="effect3_innerShadow_440_968"/>
<feColorMatrix in="SourceAlpha" type="matrix" values="0 0 0 0 0 0 0 0 0 0 0 0 0 0 0 0 0 0 127 0" result="hardAlpha"/>
<feOffset/>
<feGaussianBlur stdDeviation="7.49859"/>
<feComposite in2="hardAlpha" operator="arithmetic" k2="-1" k3="1"/>
<feColorMatrix type="matrix" values="0 0 0 0 0.9875 0 0 0 0 0.9875 0 0 0 0 0.9875 0 0 0 1 0"/>
<feBlend mode="normal" in2="effect3_innerShadow_440_968" result="effect4_innerShadow_440_968"/>
<feColorMatrix in="SourceAlpha" type="matrix" values="0 0 0 0 0 0 0 0 0 0 0 0 0 0 0 0 0 0 127 0" result="hardAlpha"/>
<feOffset dy="-18.7465"/>
<feGaussianBlur stdDeviation="14.9972"/>
<feComposite in2="hardAlpha" operator="arithmetic" k2="-1" k3="1"/>
<feColorMatrix type="matrix" values="0 0 0 0 0 0 0 0 0 0 0 0 0 0 0 0 0 0 0.03 0"/>
<feBlend mode="normal" in2="effect4_innerShadow_440_968" result="effect5_innerShadow_440_968"/>
</filter>
<radialGradient id="paint0_radial_440_968" cx="0" cy="0" r="1" gradientTransform="matrix(189.316 -42.82 42.8196 189.318 154.169 150.905)" gradientUnits="userSpaceOnUse">
<stop stop-color="#FFFAEF"/>
<stop offset="1" stop-color="white" stop-opacity="0"/>
</radialGradient>
<radialGradient id="paint1_radial_440_968" cx="0" cy="0" r="1" gradientTransform="matrix(-104.237 102.914 -102.913 -104.238 284.914 -9.38922)" gradientUnits="userSpaceOnUse">
<stop stop-color="#EDDAF8"/>
<stop offset="1" stop-color="white" stop-opacity="0"/>
</radialGradient>
<radialGradient id="paint2_radial_440_968" cx="0" cy="0" r="1" gradientTransform="matrix(103.575 228.33 -228.329 103.576 139.644 -49.4297)" gradientUnits="userSpaceOnUse">
<stop stop-color="#A98AF5"/>
<stop offset="1" stop-color="white" stop-opacity="0"/>
</radialGradient>
</defs>
</svg>
